<?xml version="1.0" encoding="UTF-8" standalone="no"?>
<!-- Created with Inkscape (http://www.inkscape.org/) -->

<svg
   xmlns:dc="http://purl.org/dc/elements/1.1/"
   xmlns:cc="http://creativecommons.org/ns#"
   xmlns:rdf="http://www.w3.org/1999/02/22-rdf-syntax-ns#"
   xmlns:svg="http://www.w3.org/2000/svg"
   xmlns="http://www.w3.org/2000/svg"
   xmlns:xlink="http://www.w3.org/1999/xlink"
   xmlns:sodipodi="http://sodipodi.sourceforge.net/DTD/sodipodi-0.dtd"
   xmlns:inkscape="http://www.inkscape.org/namespaces/inkscape"
   width="365.79941"
   height="361.94632"
   id="svg2"
   version="1.1"
   inkscape:version="0.48.5 r10040"
   sodipodi:docname="yoshukai_emblem_raw2.svg">
  <defs
     id="defs4">
    <linearGradient
       inkscape:collect="always"
       id="linearGradient3797">
      <stop
         style="stop-color:#000000;stop-opacity:1;"
         offset="0"
         id="stop3799" />
      <stop
         style="stop-color:#000000;stop-opacity:0;"
         offset="1"
         id="stop3801" />
    </linearGradient>
    <linearGradient
       inkscape:collect="always"
       xlink:href="#linearGradient3797"
       id="linearGradient3803"
       x1="155.90895"
       y1="737.20767"
       x2="398.14372"
       y2="737.20767"
       gradientUnits="userSpaceOnUse" />
  </defs>
  <sodipodi:namedview
     id="base"
     pagecolor="#ffffff"
     bordercolor="#666666"
     borderopacity="1.0"
     inkscape:pageopacity="0.0"
     inkscape:pageshadow="2"
     inkscape:zoom="1.4"
     inkscape:cx="50.121376"
     inkscape:cy="152.49751"
     inkscape:document-units="px"
     inkscape:current-layer="layer1"
     showgrid="false"
     showguides="true"
     inkscape:guide-bbox="true"
     fit-margin-left="10"
     fit-margin-bottom="10"
     fit-margin-right="10"
     fit-margin-top="10"
     inkscape:window-width="1680"
     inkscape:window-height="988"
     inkscape:window-x="-8"
     inkscape:window-y="-8"
     inkscape:window-maximized="1" />
  <metadata
     id="metadata7">
    <rdf:RDF>
      <cc:Work
         rdf:about="">
        <dc:format>image/svg+xml</dc:format>
        <dc:type
           rdf:resource="http://purl.org/dc/dcmitype/StillImage" />
        <dc:title />
      </cc:Work>
    </rdf:RDF>
  </metadata>
  <g
     inkscape:label="Ebene 1"
     inkscape:groupmode="layer"
     id="layer1"
     transform="translate(-97.37167,-483.17739)">
    <path
       style="fill:none;stroke:#ff0000;stroke-width:12;stroke-linecap:butt;stroke-linejoin:miter;stroke-miterlimit:4;stroke-opacity:1;stroke-dasharray:none"
       d="m 281.63604,499.17739 c -11.45664,16.93096 -40.98007,5.95684 -52.04824,34.34519 -21.63941,-9.38936 -44.18733,11.34088 -64.9023,8.83884 0.76597,25.52531 -23.55364,29.23782 -12.2481,63.63961 -30.14544,10.10041 -20.00849,34.63521 -38.70859,53.99611 18.52938,18.63615 10.27701,41.1323 36.16154,53.0457 -11.07271,33.94075 11.19163,43.80102 10.61929,68.39451 19.43946,-5.13061 38.08015,21.80507 66.80532,9.8004 4.52317,25.25811 38.54353,20.59738 54.3189,37.52883 18.30374,-17.42301 42.87433,-8.81195 54.57888,-36.54406 29.93491,7.55091 44.48607,-15.66467 66.02231,-14.17803 -3.35804,-24.45761 21.36829,-34.5281 9.91988,-64.79244 31.11349,-14.14481 19.90649,-33.48823 39.30185,-54.36748 -21.14909,-12.16202 -7.67664,-37.91849 -35.71247,-51.39785 11.7354,-34.36704 -21.8581,-42.36563 -20.06038,-62.4229 -18.82635,2.54657 -33.01469,-17.5444 -59.76596,-10.72869 -10.78073,-25.97606 -42.67751,-22.47032 -54.28193,-35.15774 z"
       id="path2996"
       inkscape:connector-curvature="0"
       sodipodi:nodetypes="ccccccccccccccccc" />
    <rect
       style="fill:none;stroke:#000000;stroke-width:3;stroke-miterlimit:4;stroke-opacity:1;stroke-dasharray:none"
       id="rect5231"
       width="101.01526"
       height="71.215759"
       x="231.82999"
       y="623.82532" />
    <path
       sodipodi:type="arc"
       style="fill:#ff0000;fill-opacity:1;stroke:none"
       id="path5233"
       sodipodi:cx="297.48993"
       sodipodi:cy="685.17175"
       sodipodi:rx="17.172594"
       sodipodi:ry="17.172594"
       d="m 314.66252,685.17175 c 0,9.48416 -7.68843,17.1726 -17.17259,17.1726 -9.48416,0 -17.17259,-7.68844 -17.17259,-17.1726 0,-9.48416 7.68843,-17.17259 17.17259,-17.17259 9.48416,0 17.17259,7.68843 17.17259,17.17259 z"
       transform="matrix(1.2352941,0,0,1.2352941,-85.402453,-186.72323)" />
    <path
       style="fill:none;stroke:none"
       d="m 156.14632,687.87206 c 8.60265,67.85388 69.9046,114.0241 136.92179,103.12405 55.0275,-8.94997 98.41352,-54.27021 105.70369,-110.41614"
       id="path5293"
       inkscape:connector-curvature="0" />
    <text
       xml:space="preserve"
       style="font-size:40px;font-style:normal;font-weight:normal;line-height:125%;letter-spacing:0px;word-spacing:0px;fill:#000000;fill-opacity:1;stroke:none;font-family:Sans"
       x="326.07144"
       y="606.64789"
       id="text5339"
       sodipodi:linespacing="125%"><tspan
         sodipodi:role="line"
         id="tspan5341"
         x="326.07144"
         y="606.64789"
         style="font-size:64px;font-style:normal;font-variant:normal;font-weight:normal;font-stretch:normal;font-family:NSimSun;-inkscape-font-specification:NSimSun">会</tspan></text>
    <text
       xml:space="preserve"
       style="font-size:40px;font-style:normal;font-weight:normal;line-height:125%;letter-spacing:0px;word-spacing:0px;fill:#000000;fill-opacity:1;stroke:none;font-family:Sans"
       x="169.64287"
       y="607.7193"
       id="text5343"
       sodipodi:linespacing="125%"><tspan
         sodipodi:role="line"
         id="tspan5345"
         x="169.64287"
         y="607.7193"
         style="font-size:64px;font-style:normal;font-variant:normal;font-weight:normal;font-stretch:normal;font-family:NSimSun;-inkscape-font-specification:NSimSun">養</tspan></text>
    <text
       xml:space="preserve"
       style="font-size:40px;font-style:normal;font-weight:normal;line-height:125%;letter-spacing:0px;word-spacing:0px;fill:#000000;fill-opacity:1;stroke:none;font-family:Sans"
       x="248.9286"
       y="581.64789"
       id="text5347"
       sodipodi:linespacing="125%"><tspan
         sodipodi:role="line"
         id="tspan5349"
         x="248.9286"
         y="581.64789"
         style="font-size:64px;font-style:normal;font-variant:normal;font-weight:normal;font-stretch:normal;font-family:NSimSun;-inkscape-font-specification:NSimSun">秀</tspan></text>
    <text
       xml:space="preserve"
       style="font-size:40px;font-style:normal;font-variant:normal;font-weight:normal;font-stretch:normal;line-height:125%;letter-spacing:0px;word-spacing:0px;fill:#000000;fill-opacity:1;stroke:none;font-family:SimSun-ExtB;-inkscape-font-specification:SimSun-ExtB"
       x="272.31036"
       y="666.52997"
       id="text5367"
       sodipodi:linespacing="125%"><tspan
         sodipodi:role="line"
         id="tspan5369"
         x="272.31036"
         y="666.52997"
         style="font-size:20px;font-style:normal;font-variant:normal;font-weight:normal;font-stretch:normal;font-family:NSimSun;-inkscape-font-specification:NSimSun">忍</tspan></text>
    <g
       transform="translate(5.9593898,-10.953953)"
       style="font-size:28px;font-style:normal;font-weight:normal;line-height:125%;letter-spacing:0px;word-spacing:0px;fill:#000000;fill-opacity:1;stroke:none;font-family:Sans"
       id="text5239">
      <path
         d="m 165.45585,693.23161 6.59376,-5.41645 c 0.79695,-0.65429 1.3626,-1.14367 1.69693,-1.46815 0.3343,-0.32448 0.58717,-0.63295 0.75861,-0.92541 0.1714,-0.29246 0.27779,-0.61195 0.31918,-0.95847 l 0.70429,-0.13844 1.20359,6.12307 -0.70429,0.13844 c -0.28248,-0.88002 -0.75909,-1.2541 -1.42983,-1.12225 -0.2779,0.0546 -0.57661,0.18052 -0.89613,0.37769 -0.31955,0.19716 -0.76257,0.52559 -1.32905,0.98529 l -4.9112,3.95113 5.55853,1.84834 c 0.75566,0.24955 1.36704,0.41053 1.83413,0.48295 0.46705,0.0724 0.88265,0.0728 1.2468,0.001 0.34494,-0.0678 0.59539,-0.22403 0.75135,-0.46866 0.15592,-0.24464 0.2135,-0.57195 0.17274,-0.98193 l 0.70429,-0.13844 1.0708,5.44752 -0.70429,0.13844 c -0.22099,-0.36464 -0.48762,-0.67051 -0.79992,-0.91764 -0.31234,-0.24714 -0.71424,-0.48165 -1.2057,-0.70351 -0.49149,-0.22188 -1.30827,-0.5291 -2.45033,-0.92165 l -7.59843,-2.65659 -4.65698,0.9154 c -0.54619,0.10736 -0.98132,0.22275 -1.30539,0.34617 -0.32409,0.12341 -0.57355,0.27197 -0.74841,0.44569 -0.17486,0.1737 -0.29812,0.38205 -0.36978,0.62505 -0.0717,0.24299 -0.11406,0.60961 -0.12717,1.09987 l -0.70429,0.13844 -1.29118,-6.56864 0.7043,-0.13844 c 0.18623,0.44111 0.3561,0.76103 0.50962,0.95977 0.15352,0.19872 0.34647,0.34491 0.57886,0.43858 0.23239,0.0936 0.52239,0.13865 0.87002,0.13502 0.34762,-0.004 0.79931,-0.0601 1.35509,-0.16933 z"
         style="font-size:30px;fill:#000000"
         id="path3003" />
      <path
         d="m 164.46333,720.05775 c -0.45451,-1.08016 -0.69052,-2.13834 -0.70805,-3.17456 -0.0175,-1.03624 0.216,-2.02977 0.70058,-2.98062 0.48457,-0.95085 1.23903,-1.84573 2.26337,-2.68466 1.02433,-0.83893 2.3511,-1.60117 3.98033,-2.28672 2.00726,-0.84463 3.85976,-1.2639 5.55752,-1.25784 1.69774,0.006 3.16197,0.42031 4.39272,1.2427 1.23071,0.82239 2.16233,1.98519 2.79488,3.48839 0.67416,1.60221 0.88805,3.0988 0.64167,4.48978 -0.24643,1.39096 -0.93951,2.65203 -2.07923,3.78322 -1.13977,1.13117 -2.69528,2.1115 -4.66652,2.94098 -2.1063,0.88628 -4.0166,1.31928 -5.73092,1.29901 -1.71433,-0.0203 -3.173,-0.45277 -4.376,-1.2974 -1.20302,-0.84466 -2.12646,-2.03209 -2.77035,-3.56228 z m 7.78464,-8.50427 c -2.76338,1.16279 -4.69567,2.44998 -5.79687,3.86161 -1.10121,1.41161 -1.32608,2.89152 -0.67462,4.43974 0.41284,0.98112 1.07598,1.68211 1.98943,2.10298 0.91343,0.42084 2.04519,0.54853 3.39529,0.38305 1.35008,-0.1655 2.83073,-0.58723 4.44196,-1.26519 1.96225,-0.8257 3.50494,-1.71058 4.62809,-2.65464 1.1231,-0.94408 1.83138,-1.88575 2.12484,-2.82503 0.29342,-0.93929 0.24697,-1.868 -0.13934,-2.78612 -0.3409,-0.81011 -0.82252,-1.42591 -1.44485,-1.84741 -0.62237,-0.4215 -1.36282,-0.67676 -2.22137,-0.76577 -0.85858,-0.089 -1.81986,-0.013 -2.88383,0.22814 -1.06401,0.24111 -2.20358,0.61732 -3.41873,1.12864 z"
         style="font-size:30px;fill:#000000"
         id="path3005" />
      <path
         d="m 177.47833,734.97637 c -0.60011,0.64541 -1.01243,1.24554 -1.23696,1.80041 -0.22454,0.55487 -0.28715,1.11755 -0.18783,1.68806 0.0993,0.5705 0.38271,1.1987 0.85023,1.8846 0.64352,0.94412 1.38328,1.50059 2.21928,1.66943 0.83599,0.16882 1.72604,-0.0685 2.67017,-0.71205 0.6052,-0.41252 1.04207,-0.86393 1.31062,-1.35424 0.26852,-0.49032 0.42209,-1.09727 0.46072,-1.82087 0.0386,-0.72361 -0.0328,-1.73862 -0.21412,-3.04502 -0.17551,-1.26314 -0.22634,-2.32169 -0.15249,-3.17567 0.0738,-0.85398 0.28088,-1.59489 0.62115,-2.22273 0.34024,-0.62783 0.82104,-1.15351 1.4424,-1.57703 0.90376,-0.61601 1.83289,-0.93908 2.78739,-0.96921 0.95447,-0.0301 1.89241,0.24059 2.81382,0.81212 0.92137,0.57155 1.74233,1.38586 2.46287,2.44295 0.41799,0.61328 0.7941,1.23443 1.12833,1.86346 0.33419,0.62904 0.68808,1.46034 1.06168,2.49391 l -3.26811,2.22757 -0.81678,-1.1983 c 0.58359,-0.66962 0.97684,-1.28039 1.17975,-1.83233 0.20287,-0.55194 0.25374,-1.07116 0.15261,-1.55768 -0.10118,-0.48651 -0.35801,-1.03237 -0.7705,-1.63758 -0.35754,-0.52451 -0.77475,-0.92855 -1.25166,-1.21213 -0.47694,-0.28356 -0.99359,-0.41301 -1.54995,-0.38834 -0.55639,0.0247 -1.1049,0.22128 -1.64553,0.58979 -0.57294,0.39051 -0.98698,0.82341 -1.24211,1.29868 -0.25516,0.47529 -0.40369,1.0463 -0.44558,1.71306 -0.0419,0.66675 0.0188,1.57082 0.18226,2.71218 0.18757,1.3849 0.25333,2.51305 0.19729,3.38445 -0.0561,0.8714 -0.25992,1.66035 -0.61154,2.36686 -0.35165,0.7065 -0.90673,1.31826 -1.66524,1.83529 -0.8473,0.57751 -1.65421,0.9325 -2.42074,1.06499 -0.76655,0.13246 -1.49427,0.0878 -2.18318,-0.134 -0.68893,-0.22181 -1.34023,-0.60516 -1.95392,-1.15006 -0.61369,-0.54491 -1.18729,-1.20872 -1.7208,-1.99145 -0.86354,-1.2669 -1.64523,-2.87322 -2.34509,-4.81895 l 3.31653,-2.26058 z"
         style="font-size:30px;fill:#000000"
         id="path3007" />
      <path
         d="m 199.28932,761.79287 c -0.39287,0.408 -0.67697,0.72417 -0.85228,0.9485 -0.17535,0.22432 -0.29766,0.42174 -0.36694,0.59228 -0.0693,0.17051 -0.10603,0.32833 -0.11018,0.47345 -0.004,0.14511 0.0283,0.31198 0.0975,0.50061 0.0692,0.18861 0.20706,0.45018 0.41369,0.78471 l -0.49785,0.51705 -4.4213,-4.25716 0.49785,-0.51705 c 0.48173,0.27405 0.85755,0.42579 1.12748,0.45523 0.2699,0.0294 0.55329,-0.0502 0.85017,-0.23882 0.29686,-0.18865 0.72639,-0.57491 1.28861,-1.15878 l 4.25716,-4.4213 -5.86693,-5.64912 -4.25716,4.4213 c -0.45383,0.47133 -0.76991,0.83127 -0.94823,1.07982 -0.17833,0.24856 -0.29152,0.47171 -0.33957,0.66946 -0.0481,0.19774 -0.0406,0.40825 0.0223,0.63153 0.0629,0.22327 0.21555,0.5329 0.45787,0.92891 l -0.49786,0.51704 -4.4424,-4.27748 0.49785,-0.51705 c 0.54453,0.30741 0.9567,0.46364 1.23651,0.46871 0.27981,0.005 0.5645,-0.097 0.85408,-0.30623 0.28957,-0.20922 0.68497,-0.57411 1.18622,-1.09468 l 8.78865,-9.1275 c 0.46736,-0.48539 0.79014,-0.85581 0.96834,-1.11128 0.17818,-0.25545 0.2861,-0.48368 0.32375,-0.6847 0.0376,-0.20099 0.0252,-0.40277 -0.0374,-0.60534 -0.0625,-0.20255 -0.21159,-0.50535 -0.44711,-0.90839 l 0.49785,-0.51705 4.4424,4.27748 -0.49785,0.51705 c -0.38405,-0.22065 -0.68191,-0.35833 -0.89358,-0.41304 -0.2117,-0.0547 -0.41388,-0.063 -0.60652,-0.0248 -0.19268,0.0382 -0.42012,0.15472 -0.68232,0.3496 -0.26223,0.1949 -0.62703,0.53504 -1.09438,1.02043 l -3.59675,3.73542 5.86693,5.64912 3.59674,-3.73542 c 0.58928,-0.61202 0.9624,-1.05937 1.11939,-1.34205 0.15693,-0.28269 0.22264,-0.55156 0.19712,-0.80662 -0.0256,-0.25506 -0.19168,-0.63868 -0.49832,-1.15088 l 0.49785,-0.51705 4.4213,4.25716 -0.49785,0.51705 c -0.4888,-0.28083 -0.86984,-0.4342 -1.14311,-0.46012 -0.27333,-0.0259 -0.55665,0.0571 -0.84998,0.24918 -0.29337,0.19202 -0.71776,0.57646 -1.27317,1.1533 z"
         style="font-size:30px;fill:#000000"
         id="path3009" />
      <path
         d="m 222.32353,773.43154 c -0.5474,0.91292 -1.1032,1.65 -1.66742,2.21123 -0.53578,0.53274 -1.10843,0.94659 -1.71795,1.24155 -0.55429,0.25975 -1.14084,0.41192 -1.75965,0.4565 -0.61883,0.0446 -1.29086,-0.031 -2.0161,-0.22674 -0.72525,-0.19573 -1.50665,-0.54469 -2.34419,-1.04686 -1.01344,-0.60764 -1.8146,-1.24173 -2.40349,-1.90225 -0.58889,-0.66052 -0.96552,-1.3902 -1.12989,-2.18902 -0.16438,-0.79883 -0.1416,-1.61069 0.0683,-2.43559 0.20993,-0.82489 0.63881,-1.77756 1.28663,-2.858 l 4.95652,-8.26661 c 0.39169,-0.65328 0.63565,-1.10764 0.73188,-1.36309 0.0962,-0.25542 0.14472,-0.47399 0.14551,-0.65572 7.7e-4,-0.1817 -0.0453,-0.36592 -0.13834,-0.55264 -0.093,-0.1867 -0.31208,-0.45753 -0.65719,-0.81249 l 0.36911,-0.6156 5.27656,3.16374 -0.3691,0.61559 c -0.53935,-0.16395 -0.94509,-0.22788 -1.21722,-0.1918 -0.27216,0.0361 -0.52961,0.18063 -0.77236,0.43358 -0.24278,0.25298 -0.57006,0.72286 -0.98184,1.40964 l -5.33316,8.89477 c -0.48712,0.81243 -0.81055,1.5465 -0.97028,2.20223 -0.15975,0.65573 -0.17632,1.22935 -0.0497,1.72087 0.12659,0.49151 0.36204,0.93442 0.70633,1.32873 0.34429,0.3943 0.8347,0.78228 1.47125,1.16394 0.58627,0.35153 1.16288,0.55777 1.72983,0.61873 0.56692,0.0609 1.1246,-0.0288 1.67303,-0.26932 0.54841,-0.2405 1.06035,-0.63382 1.53584,-1.17994 0.47546,-0.54613 1.02204,-1.33429 1.63973,-2.36447 l 4.70795,-7.85202 c 0.43687,-0.72866 0.70008,-1.24835 0.7896,-1.55906 0.0895,-0.31069 0.0953,-0.58619 0.0173,-0.82651 -0.078,-0.2403 -0.33223,-0.58062 -0.76277,-1.02097 l 0.36911,-0.6156 5.01273,3.00555 -0.3691,0.6156 c -0.56113,-0.16563 -0.97692,-0.22705 -1.24736,-0.18426 -0.27049,0.0428 -0.5246,0.18648 -0.76232,0.43107 -0.23777,0.2446 -0.56253,0.71029 -0.9743,1.39707 z"
         style="font-size:30px;fill:#000000"
         id="path3011" />
      <path
         d="m 236.75091,775.20557 0.41712,0.13831 c 0.35222,0.11681 0.69277,0.168 1.02165,0.15358 0.32886,-0.0144 0.72476,-0.11461 1.1877,-0.30064 0.46292,-0.186 1.20347,-0.57318 2.22166,-1.16153 1.21872,-0.69674 2.06407,-1.21378 2.53605,-1.55114 0.58303,-0.3931 1.00401,-0.74735 1.26294,-1.06276 0.20035,-0.23192 0.34203,-0.47302 0.42503,-0.7233 0.12293,-0.37076 0.10624,-0.67723 -0.0501,-0.91942 -0.15635,-0.24217 -0.41376,-0.44327 -0.77222,-0.6033 l 0.22592,-0.6813 6.06212,2.01018 -0.22591,0.68129 c -0.31816,-0.0335 -0.64779,-0.0167 -0.98891,0.0502 -0.34116,0.0669 -0.70923,0.19181 -1.1042,0.37462 -0.39502,0.18283 -0.99208,0.50185 -1.79119,0.95705 l -6.41449,3.70657 2.62209,9.03341 c 0.27941,0.95689 0.52059,1.64132 0.72353,2.05327 0.2029,0.41195 0.41958,0.73587 0.65003,0.97176 0.23042,0.23588 0.49553,0.42924 0.79534,0.5801 l -0.22591,0.68129 -6.13165,-2.03322 0.22591,-0.6813 c 0.35218,0.0859 0.62396,0.10402 0.81536,0.0543 0.19138,-0.0497 0.32088,-0.17653 0.38852,-0.38045 0.0553,-0.16685 0.0689,-0.38613 0.0407,-0.65784 -0.0282,-0.27172 -0.10288,-0.61284 -0.22395,-1.02338 l -1.63978,-5.89892 c -0.18949,-0.70071 -0.34155,-1.17296 -0.45618,-1.41675 -0.11465,-0.24378 -0.25934,-0.44351 -0.43405,-0.5992 -0.17474,-0.15567 -0.43358,-0.29037 -0.77654,-0.4041 l -0.73691,-0.24436 -1.93179,5.82576 c -0.20594,0.62104 -0.3357,1.08215 -0.38926,1.38333 -0.0536,0.30118 -0.0594,0.55133 -0.0174,0.75045 0.042,0.19913 0.13957,0.38581 0.29271,0.56005 0.15313,0.17424 0.42445,0.38767 0.81396,0.64029 l -0.22591,0.6813 -5.85357,-1.94102 0.22592,-0.6813 c 0.62387,0.0423 1.0631,0.005 1.3177,-0.11092 0.25459,-0.1162 0.46733,-0.33116 0.63824,-0.64488 0.1709,-0.31371 0.37007,-0.81353 0.59753,-1.49946 l 3.98807,-12.02693 c 0.21208,-0.63957 0.34336,-1.11303 0.39384,-1.4204 0.0505,-0.30733 0.0493,-0.55979 -0.004,-0.75737 -0.0528,-0.19754 -0.15115,-0.37418 -0.29498,-0.52993 -0.14385,-0.15571 -0.40899,-0.36452 -0.79541,-0.62642 l 0.22591,-0.6813 5.85357,1.94102 -0.22591,0.6813 c -0.44168,-0.0333 -0.76979,-0.0289 -0.98434,0.0131 -0.21457,0.042 -0.40051,0.12185 -0.55781,0.23943 -0.15732,0.11761 -0.31218,0.3209 -0.46458,0.60987 -0.15243,0.28899 -0.33467,0.75328 -0.54675,1.39284 z"
         style="font-size:30px;fill:#000000"
         id="path3013" />
      <path
         d="m 263.44719,792.19063 0.0745,-0.7139 c 0.49576,-0.0465 0.86872,-0.11555 1.11886,-0.20728 0.25011,-0.0917 0.44434,-0.23593 0.5827,-0.4326 0.13833,-0.19666 0.22574,-0.46983 0.26223,-0.81949 0.0344,-0.33024 0.0328,-0.69124 -0.005,-1.08301 -0.0377,-0.39177 -0.10454,-0.83322 -0.20057,-1.32435 l -0.34299,-1.93569 -6.78932,-0.70832 -0.64432,1.37612 c -0.32753,0.69241 -0.54939,1.21911 -0.6656,1.58009 -0.11621,0.36098 -0.19002,0.69203 -0.22143,0.99312 -0.0608,0.58278 0.0427,1.0256 0.3106,1.32847 0.26787,0.30287 0.7032,0.52993 1.306,0.68118 l -0.0745,0.7139 -6.22112,-0.64904 0.0745,-0.7139 c 0.55304,-0.0307 1.05948,-0.29693 1.51931,-0.7988 0.45983,-0.50187 0.93185,-1.23812 1.41604,-2.20874 l 7.75806,-15.49445 2.30196,0.24016 3.25878,16.76164 c 0.15406,0.78193 0.30016,1.38138 0.43832,1.79836 0.13813,0.41697 0.32181,0.75033 0.55106,1.00007 0.22921,0.24975 0.55679,0.45084 0.98274,0.60328 l -0.0745,0.7139 z m -4.77384,-8.45113 6.09,0.63536 -1.78778,-9.68604 z"
         style="font-size:30px;fill:#000000"
         id="path3015" />
      <path
         d="m 283.06311,788.54166 c 0.0459,0.65269 0.10135,1.12849 0.16643,1.42739 0.0651,0.29891 0.1549,0.53245 0.26952,0.7006 0.11461,0.16816 0.27588,0.30367 0.4838,0.40653 0.20792,0.10286 0.54004,0.19698 0.99638,0.28238 l 0.0503,0.716 -6.16642,0.43352 -0.0503,-0.716 c 0.59302,-0.19833 0.98514,-0.39966 1.17636,-0.60401 0.19121,-0.20434 0.30616,-0.48409 0.34482,-0.83924 0.0387,-0.35514 0.0327,-0.89315 -0.018,-1.61403 l -0.88861,-12.6397 c -0.0473,-0.67216 -0.10603,-1.15996 -0.1763,-1.46341 -0.0703,-0.30342 -0.16743,-0.53644 -0.29145,-0.69906 -0.12401,-0.16258 -0.28216,-0.28852 -0.47444,-0.37781 -0.19228,-0.0893 -0.51693,-0.18146 -0.97394,-0.27662 l -0.0503,-0.716 6.16642,-0.43352 0.0503,0.716 c -0.4211,0.13731 -0.72287,0.26622 -0.90529,0.38671 -0.18243,0.12053 -0.32401,0.26509 -0.42473,0.43369 -0.10073,0.16863 -0.16659,0.41555 -0.19756,0.74077 -0.031,0.32526 -0.0228,0.82396 0.0244,1.49611 z"
         style="font-size:30px;fill:#000000"
         id="path3017" />
      <path
         d="m 300.24087,782.91135 -6.65608,1.3763 -0.45975,-2.22348 6.65607,-1.37629 z"
         style="font-size:30px;fill:#000000"
         id="path3019" />
      <path
         d="m 311.38216,775.02865 0.40911,-0.16046 c 0.34546,-0.13549 0.63999,-0.31396 0.88358,-0.53539 0.24358,-0.22141 0.48381,-0.55166 0.7207,-0.99076 0.23688,-0.43907 0.55851,-1.21036 0.96489,-2.31386 0.49121,-1.31508 0.81033,-2.25322 0.95737,-2.81443 0.19675,-0.67508 0.29378,-1.21666 0.29108,-1.62473 0.006,-0.30642 -0.0396,-0.58237 -0.13589,-0.82785 -0.14264,-0.36363 -0.35149,-0.58855 -0.62656,-0.67474 -0.27507,-0.0861 -0.60156,-0.0761 -0.97947,0.0302 l -0.2621,-0.66821 5.94571,-2.33211 0.26209,0.66821 c -0.26597,0.17777 -0.50866,0.40147 -0.72808,0.67108 -0.21943,0.26967 -0.4225,0.60108 -0.6092,0.99423 -0.18671,0.3932 -0.44163,1.02031 -0.76476,1.88133 l -2.56015,6.95199 7.7934,5.26695 c 0.82682,0.55686 1.44997,0.92872 1.86946,1.1156 0.41945,0.18689 0.79319,0.2973 1.12122,0.33123 0.32799,0.034 0.65546,0.013 0.98242,-0.0628 l 0.26209,0.66821 -6.01389,2.35885 -0.2621,-0.66821 c 0.32567,-0.15921 0.54617,-0.31913 0.66151,-0.47976 0.11532,-0.16061 0.13376,-0.34093 0.0553,-0.54095 -0.0642,-0.16363 -0.19403,-0.34086 -0.3895,-0.53169 -0.1955,-0.19081 -0.47106,-0.40529 -0.82671,-0.64344 l -5.03346,-3.48573 c -0.59384,-0.41745 -1.01278,-0.68322 -1.25683,-0.7973 -0.24405,-0.11406 -0.48302,-0.17506 -0.7169,-0.18299 -0.23389,-0.008 -0.51902,0.0541 -0.8554,0.18603 l -0.72276,0.28349 2.24118,5.71388 c 0.23891,0.60913 0.4341,1.04658 0.58556,1.31236 0.15144,0.26578 0.30699,0.46178 0.46664,0.58797 0.15964,0.12621 0.35405,0.20731 0.58322,0.2433 0.22915,0.036 0.57423,0.0265 1.03523,-0.0284 l 0.26209,0.66821 -5.74116,2.25188 -0.26209,-0.66821 c 0.5066,-0.36655 0.8206,-0.67591 0.94198,-0.92807 0.12138,-0.25216 0.14743,-0.55348 0.0782,-0.90395 -0.0693,-0.35046 -0.23586,-0.86207 -0.49974,-1.53483 l -4.62677,-11.79596 c -0.24604,-0.62728 -0.44796,-1.0752 -0.60574,-1.34377 -0.15778,-0.26853 -0.32015,-0.46184 -0.48711,-0.57995 -0.16695,-0.11807 -0.35551,-0.19097 -0.56569,-0.2187 -0.21018,-0.0277 -0.54754,-0.0186 -1.0121,0.0272 l -0.2621,-0.66821 5.74116,-2.25187 0.26209,0.66821 c -0.36079,0.25693 -0.61021,0.47015 -0.74827,0.63967 -0.13805,0.16956 -0.22994,0.34983 -0.27565,0.54083 -0.0457,0.19103 -0.0347,0.44635 0.0329,0.76596 0.0677,0.31964 0.22453,0.7931 0.47058,1.42038 z"
         style="font-size:30px;fill:#000000"
         id="path3021" />
      <path
         d="m 342.87238,771.19096 -0.39074,-0.60209 c 0.35641,-0.34773 0.60308,-0.63587 0.73999,-0.86442 0.13689,-0.22855 0.19734,-0.46278 0.18136,-0.7027 -0.016,-0.23991 -0.1197,-0.50732 -0.31108,-0.80224 -0.18076,-0.27851 -0.4089,-0.55829 -0.68442,-0.83934 -0.27553,-0.28104 -0.60498,-0.58238 -0.98835,-0.90405 l -1.48334,-1.29005 -5.72603,3.71607 0.36371,1.47532 c 0.18042,0.74441 0.33887,1.29353 0.47535,1.64734 0.13648,0.35382 0.28713,0.6577 0.45193,0.91164 0.31898,0.49151 0.67782,0.77087 1.07652,0.83809 0.3987,0.0672 0.88002,-0.0298 1.44395,-0.29096 l 0.39074,0.60209 -5.24681,3.40507 -0.39075,-0.6021 c 0.41089,-0.37143 0.63746,-0.89683 0.67971,-1.57619 0.0423,-0.67936 -0.0533,-1.54868 -0.28675,-2.60796 l -3.70371,-16.92773 1.94145,-1.25995 13.06924,10.98941 c 0.61126,0.51138 1.10165,0.88582 1.47117,1.12332 0.3695,0.23752 0.72189,0.38137 1.05716,0.43154 0.33525,0.0502 0.71643,7.3e-4 1.14356,-0.1484 l 0.39074,0.6021 z m -9.02462,-3.57315 5.13623,-3.3333 -7.47813,-6.41039 z"
         style="font-size:30px;fill:#000000"
         id="path3023" />
      <path
         d="m 352.38227,752.61377 3.47561,3.56723 c 0.49067,0.50362 0.86599,0.85034 1.12595,1.04018 0.25995,0.18985 0.48462,0.30499 0.67401,0.34543 0.18938,0.0405 0.3863,0.0327 0.59076,-0.0234 0.20445,-0.056 0.51185,-0.19533 0.9222,-0.4179 l 0.5009,0.51411 -4.42757,4.31385 -0.5009,-0.51411 c 0.32462,-0.53443 0.49393,-0.94141 0.50793,-1.22092 0.014,-0.2795 -0.079,-0.56731 -0.27882,-0.86341 -0.19987,-0.2961 -0.55196,-0.70295 -1.05626,-1.22055 l -8.84237,-9.07547 c -0.47022,-0.48261 -0.83016,-0.81705 -1.07981,-1.00332 -0.24964,-0.18624 -0.47431,-0.30139 -0.67402,-0.34544 -0.19968,-0.044 -0.40176,-0.038 -0.60622,0.018 -0.20445,0.0561 -0.51185,0.19536 -0.9222,0.4179 l -0.5009,-0.5141 5.19348,-5.06009 c 1.63674,-1.59467 3.15042,-2.49001 4.54106,-2.68602 1.39064,-0.19597 2.69589,0.33205 3.91577,1.58405 0.93364,0.95828 1.46353,2.03041 1.58968,3.2164 0.12614,1.18602 -0.15488,2.48241 -0.84305,3.88915 l 0.0818,0.0839 c 0.59704,-0.24083 1.20614,-0.34686 1.8273,-0.31807 0.62115,0.0288 1.45102,0.20535 2.4896,0.52961 l 2.62074,0.80065 c 0.76345,0.23784 1.37259,0.39425 1.82742,0.46921 0.4548,0.075 0.85178,0.0836 1.19093,0.0258 0.33913,-0.0577 0.70383,-0.22218 1.09411,-0.49335 l 0.50089,0.5141 -2.90625,2.8316 c -0.62699,-0.11173 -1.26725,-0.26508 -1.92076,-0.46006 -0.65354,-0.19495 -1.31038,-0.40031 -1.97054,-0.61609 l -2.63042,-0.85257 c -0.79772,-0.25898 -1.40843,-0.42749 -1.83213,-0.50552 -0.4237,-0.078 -0.76015,-0.0945 -1.00935,-0.0494 -0.2492,0.0451 -0.47822,0.13191 -0.68707,0.26039 -0.20885,0.12851 -0.48464,0.35972 -0.82738,0.69364 z m -6.95123,-7.13448 6.0721,6.23217 1.18558,-1.15513 c 0.60853,-0.59288 1.05906,-1.11705 1.35158,-1.5725 0.29252,-0.45543 0.48039,-0.96229 0.56362,-1.52061 0.0832,-0.55828 0.008,-1.14971 -0.22553,-1.7743 -0.23358,-0.62455 -0.66045,-1.25509 -1.28061,-1.89162 -0.64742,-0.66446 -1.29946,-1.10629 -1.95612,-1.32549 -0.65666,-0.21915 -1.32826,-0.21925 -2.0148,-3.1e-4 -0.68653,0.21899 -1.4215,0.7101 -2.20489,1.47335 -0.62951,0.61337 -1.12648,1.12485 -1.49093,1.53444 z"
         style="font-size:30px;fill:#000000"
         id="path3025" />
      <path
         d="m 378.24498,735.49405 -0.5908,-0.40762 c 0.19691,-0.45735 0.31508,-0.81778 0.3545,-1.08127 0.0394,-0.26347 0.006,-0.50306 -0.10027,-0.71876 -0.10627,-0.21569 -0.30409,-0.42336 -0.59346,-0.62302 -0.2733,-0.18855 -0.59088,-0.36021 -0.95274,-0.51498 -0.36188,-0.15475 -0.78134,-0.30772 -1.25839,-0.45891 l -1.86316,-0.62702 -3.87659,5.6186 0.89875,1.22519 c 0.45063,0.61939 0.80648,1.06661 1.06756,1.34165 0.26108,0.27506 0.5162,0.49854 0.76538,0.67046 0.48229,0.33276 0.92054,0.4542 1.31475,0.36432 0.39422,-0.0899 0.80219,-0.36305 1.22393,-0.81954 l 0.5908,0.40762 -3.55216,5.14838 -0.5908,-0.40762 c 0.23823,-0.50005 0.24736,-1.07214 0.0274,-1.7163 -0.21997,-0.64414 -0.63979,-1.41135 -1.25946,-2.30161 l -9.87823,-14.23678 1.31438,-1.90502 16.27206,5.17612 c 0.76007,0.23968 1.35618,0.39885 1.78835,0.47752 0.43215,0.0787 0.81276,0.0773 1.14184,-0.004 0.32906,-0.0814 0.66259,-0.27248 1.00058,-0.57321 l 0.5908,0.40763 z m -9.70527,0.13774 3.47729,-5.03986 -9.35741,-3.07482 z"
         style="font-size:30px;fill:#000000"
         id="path3027" />
      <path
         d="m 367.51737,714.96218 6.35364,-14.52038 4.67014,2.0435 -0.57547,1.31515 c -0.85553,-0.13982 -1.54904,-0.21144 -2.08055,-0.21484 -0.53149,-0.003 -0.96052,0.0514 -1.2871,0.16433 -0.32655,0.11295 -0.59287,0.2709 -0.79895,0.47385 -0.20606,0.20299 -0.41675,0.55051 -0.63207,1.04256 l -0.74576,1.70433 13.74202,6.01305 c 0.52785,0.23099 0.96106,0.3859 1.29964,0.46475 0.33858,0.0789 0.626,0.098 0.86225,0.0575 0.23626,-0.0405 0.45085,-0.14116 0.64377,-0.30192 0.19293,-0.16074 0.43451,-0.43878 0.72475,-0.83411 l 0.65757,0.28773 -2.68356,6.13291 -0.65758,-0.28773 c 0.0548,-0.2958 0.0915,-0.56224 0.10993,-0.79934 0.0185,-0.23708 0.005,-0.443 -0.0415,-0.61775 -0.0461,-0.17474 -0.13111,-0.33984 -0.25495,-0.49531 -0.12385,-0.15545 -0.31369,-0.31846 -0.5695,-0.48903 -0.25581,-0.17056 -0.65212,-0.37328 -1.18892,-0.60818 l -13.74202,-6.01305 -0.73989,1.69091 c -0.18397,0.4205 -0.29541,0.7848 -0.33431,1.0929 -0.0389,0.30811 0.0183,0.63426 0.17148,0.97843 0.15321,0.34419 0.42257,0.71522 0.80809,1.11309 0.38554,0.39788 0.89898,0.8384 1.54032,1.32156 l -0.58134,1.32858 z"
         style="font-size:30px;fill:#000000"
         id="path3029" />
      <path
         d="m 378.62107,681.66677 4.31206,0.98813 -0.32066,1.39928 c -0.49913,0.0359 -0.94225,0.0897 -1.32937,0.16124 -0.38708,0.0716 -0.71816,0.16105 -0.99323,0.26832 -0.27504,0.10731 -0.50631,0.24216 -0.69383,0.40456 -0.18748,0.16243 -0.33795,0.37091 -0.4514,0.62542 -0.11341,0.25455 -0.21266,0.56744 -0.29775,0.93866 l -1.03394,4.51195 7.48184,1.71452 0.70021,-3.05557 c 0.096,-0.41882 0.11175,-0.76085 0.0473,-1.0261 -0.0644,-0.26523 -0.22145,-0.5091 -0.47104,-0.73161 -0.24956,-0.22249 -0.6626,-0.47493 -1.23909,-0.75734 l 0.30756,-1.34216 5.48288,1.25644 -0.30756,1.34216 c -0.60167,0.002 -1.06621,0.0512 -1.39362,0.14652 -0.32741,0.0953 -0.57861,0.24062 -0.75363,0.43594 -0.175,0.19535 -0.31376,0.51671 -0.41629,0.96409 l -0.7002,3.05556 8.2386,1.88793 1.01758,-4.44056 c 0.10689,-0.46642 0.15314,-0.85406 0.13876,-1.16294 -0.0144,-0.30886 -0.0951,-0.59036 -0.24229,-0.8445 -0.14715,-0.25412 -0.35925,-0.49809 -0.63629,-0.73191 -0.27704,-0.23379 -0.57198,-0.44414 -0.88481,-0.63106 -0.31284,-0.18689 -0.77108,-0.4497 -1.37474,-0.78842 l 0.32392,-1.41355 4.94953,1.41975 -3.02985,13.22174 -0.69964,-0.16033 c -0.0171,-0.62507 -0.0955,-1.05882 -0.2353,-1.30126 -0.13981,-0.24242 -0.37397,-0.43384 -0.70247,-0.57424 -0.3285,-0.1404 -0.84495,-0.29131 -1.54935,-0.45273 l -12.35076,-2.83026 c -0.65679,-0.1505 -1.14057,-0.23632 -1.45134,-0.25744 -0.31073,-0.0211 -0.56194,0.004 -0.75362,0.0753 -0.19165,0.0713 -0.35818,0.18593 -0.49959,0.34388 -0.14138,0.15796 -0.32412,0.44169 -0.54822,0.8512 l -0.69964,-0.16033 z"
         style="font-size:30px;fill:#000000"
         id="path3031" />
    </g>
  </g>
</svg>
